<svg width="24" height="24" viewBox="0 0 24 24" fill="none" xmlns="http://www.w3.org/2000/svg">
<path d="M13.744 17.736C13.4438 18.7286 12.8914 19.6264 12.1408 20.342C11.3902 21.0575 10.467 21.5663 9.46117 21.8187C8.45535 22.071 7.40129 22.0584 6.40179 21.7821C5.40229 21.5057 4.49149 20.975 3.75821 20.2417C3.02494 19.5084 2.49424 18.5976 2.21786 17.5981C1.94149 16.5986 1.92889 15.5446 2.18128 14.5388C2.43367 13.5329 2.94244 12.6097 3.65797 11.8591C4.3735 11.1085 5.27135 10.5562 6.26395 10.256" stroke="#111111" stroke-linecap="round" stroke-linejoin="round"/>
<path d="M15 6H16V10" stroke="#111111" stroke-linecap="round" stroke-linejoin="round"/>
<path d="M6.13403 14.7679L7.00003 14.2679L9.00003 17.7319" stroke="#111111" stroke-linecap="round" stroke-linejoin="round"/>
<path d="M16 14C19.3137 14 22 11.3137 22 8C22 4.68629 19.3137 2 16 2C12.6863 2 10 4.68629 10 8C10 11.3137 12.6863 14 16 14Z" stroke="#111111" stroke-linecap="round" stroke-linejoin="round"/>
</svg>
